<svg width="273" height="126" viewBox="0 0 273 126" fill="none" xmlns="http://www.w3.org/2000/svg">
<path d="M0.5 53.8H15.3C22.1 53.8 29 55.3 29 62.6C29 65.4 27.5 68.1 24.4 69V69.3C28.2 70.5 30.6 73.1 30.6 76.9C30.6 83.5 23.9 85.7 17.8 85.7H0.5V53.8ZM13.4 66.1C15.3 66.1 17.4 65.9 17.4 63.7C17.4 61.3 15 61.5 13.2 61.5H12.3V66.1H13.4V66.1ZM12.3 78.1H13.7C15.8 78.1 18.8 78.1 18.8 75.4C18.8 72.7 15.5 72.8 13.5 72.8H12.2V78.1H12.3Z" fill="#1B4F8B"/>
<path d="M32.7 53.8H58.4V62.5H46.7V65.6H57.4V73.9H46.7V77H58.8V85.7H32.7V53.8Z" fill="#1B4F8B"/>
<path d="M76.5 53.8L81.3 62.1H81.8C82.3 61.1 82.7 60.1 83.2 59.1L86.3 53.8H103.9L89.1 72V85.7H73.8V72L58.8 53.9H76.5" fill="#1B4F8B"/>
<path d="M148.1 69.9C148.1 80.1 136.6 86.3 122.5 86.3C108.4 86.3 96.9 80.2 96.9 69.9C96.9 59.9 108.4 53.4 122.5 53.4C136.6 53.3 148.1 59.8 148.1 69.9ZM113.9 70C113.9 73.6 117.5 76.1 122.5 76.1C127.6 76.1 131.1 73.6 131.1 70C131.1 66.6 127.8 63.8 122.5 63.8C117.2 63.8 113.9 66.6 113.9 70Z" fill="#1B4F8B"/>
<path d="M202.6 53.8H229.1C253.2 53.8 271.6 58.5 271.6 70.2C271.6 79.7 256.6 85.7 235.5 85.7H202.5V53.8H202.6ZM228.7 76.2H230.3C239 76.2 245.6 74.4 245.6 70.2C245.6 65.7 239.8 63.8 230.3 63.8H228.7V76.2V76.2Z" fill="#1B4F8B"/>
<path d="M265.8 57.9C265.8 56.4 267 55.3 268.4 55.3C269.9 55.3 271 56.5 271 57.9C271 59.4 269.8 60.5 268.4 60.5C266.9 60.5 265.8 59.3 265.8 57.9ZM270.6 57.9C270.6 56.7 269.6 55.7 268.4 55.7C267.2 55.7 266.2 56.7 266.2 57.9C266.2 59.1 267.2 60.1 268.4 60.1C269.6 60.1 270.6 59.1 270.6 57.9ZM269.6 59.3H269.1L268.2 58H267.7V59.3H267.3V56.4H268.5C269 56.4 269.5 56.5 269.5 57.2C269.5 57.8 269.1 58 268.6 58L269.6 59.3ZM268.3 57.5C268.7 57.5 269.3 57.6 269.3 57.1C269.3 56.8 268.9 56.8 268.6 56.8H267.8V57.5H268.3V57.5Z" fill="#1B4F8B"/>
<path d="M167.4 53.9H150.2V85.7H167.4V69.5L182.6 85.7H199.7V53.9H182.6V70.4L167.4 53.9Z" fill="#1B4F8B"/>
<path d="M5.6 7.2H7.1C12 7.2 16.1 8.2 16.1 14.1C16.1 20.1 12 21.2 7 21.2H5.7V7.2H5.6ZM5.6 25.4H8.90001C13.6 25.4 19.7 26.6 19.7 32.6C19.7 38.6 14.6 40.1 9.7 40.1H5.7V25.4H5.6ZM0.400003 44.7H10.3C17.8 44.7 25 41.3 25 32.9C25 28 21.5 23.1 16.5 22.2V22.1C19.4 20.8 21 17.2 21 14.1C21 4.6 13.5 2.5 5.5 2.5H0.300003V44.7H0.400003Z" fill="#1B4F8B"/>
<path d="M28 2.5H50.7V7.3H33.2V19.2H50.1V24H33.2V39.9H50.7V44.7H28V2.5Z" fill="#1B4F8B"/>
<path d="M60.8 7.3H62.6C73.4 7.3 82.7 11.3 82.7 23.6C82.7 35.9 73.4 39.9 62.6 39.9H60.8V7.3ZM55.6 44.7H64.2C77.5 44.7 88.1 37.7 88.1 23.4C88.1 9.3 77.3 2.5 64.4 2.5H55.7V44.7H55.6Z" fill="#1B4F8B"/>
<path d="M108.1 7.2H109.6C114.5 7.2 118.6 8.2 118.6 14.1C118.6 20.1 114.5 21.2 109.5 21.2H108.2V7.2H108.1ZM108.1 25.4H111.4C116.1 25.4 122.2 26.6 122.2 32.6C122.2 38.6 117.1 40.1 112.2 40.1H108.2V25.4H108.1ZM102.8 44.7H112.7C120.2 44.7 127.4 41.3 127.4 32.9C127.4 28 123.9 23.1 118.9 22.2V22.1C121.8 20.8 123.4 17.2 123.4 14.1C123.4 4.6 115.9 2.5 107.9 2.5H102.7V44.7H102.8Z" fill="#1B4F8B"/>
<path d="M154.8 29.3H139.8L147.3 12.2L154.8 29.3ZM157 34.2L161.8 44.8H167.5L147.3 0.800003L127.1 44.8H132.8L137.6 34.2H157Z" fill="#1B4F8B"/>
<path d="M176.7 44.7H171.4V7.3H161.4V2.5H186.7V7.3H176.7V44.7Z" fill="#1B4F8B"/>
<path d="M215 19.5V2.5H220.2V44.7H215V24.4H194.9V44.7H189.6V2.5H194.9V19.5H215Z" fill="#1B4F8B"/>
<path d="M247.1 23.9L256.4 35.3C253.8 37.9 250.6 40.9 246.7 40.9C242.7 40.9 238.9 37.1 238.9 33.1C238.9 29.1 243.7 26.2 246.6 24.2L247.1 23.9ZM248.2 17.3L246.8 15.5C245.6 13.9 244.3 12.4 244.3 10.2C244.3 7.5 246.5 5.7 249 5.7C251.8 5.7 253.9 7.3 253.9 10.3C253.9 13.4 251 15.1 248.8 16.8L248.2 17.3ZM264.2 44.7H270.7L263.1 35.3L268.3 29.2L264.9 25.7L260 31.4L251.2 20.8C254.7 18.2 258.9 15 258.9 10.3C258.9 4.8 254.3 1.5 249.2 1.5C243.6 1.5 239.5 4.9 239.5 10.7C239.5 14.3 241.7 17.4 244.1 19.9L241.5 21.8C237.5 24.7 234.2 27.6 234.2 33C234.2 40.3 240.1 45.4 247.1 45.4C252.1 45.4 256.6 42.5 259.8 38.8L264.2 44.7Z" fill="#1B4F8B"/>
<path d="M27.7 125.4L19.8 114.3H5.1V125.4H0.300003V96.2H23.3C29.4 96.2 33.1 99.7 33.1 105.4C33.1 110.6 29.9 113.3 25.5 114L33.3 125.4H27.7ZM28.1 105.4C28.1 102.2 26.1 100.6 22.1 100.6H5.1V109.9H22.6C26.2 109.9 28.1 108.3 28.1 105.4Z" fill="#0F2752"/>
<path d="M44.3 125.4V100.6H70V105H49.1V110.3H63.6V114.7H49.1V121H70.9V125.4H44.3Z" fill="#0F2752"/>
<path d="M110.8 125.4H105L99.1 104.7L93.2 125.4H87.4L79 100.6H84.4L90.4 121.2L96.3 100.6H102.1L108 121.2L114 100.6H119.4L110.8 125.4Z" fill="#0F2752"/>
<path d="M151.4 125.4L148.5 120.1H131.9L129 125.4H123.7L137.2 100.6H143.2L156.7 125.4H151.4ZM140.2 104.8L134.3 115.8H146.1L140.2 104.8Z" fill="#0F2752"/>
<path d="M188.8 125.4L182.3 116.3H170V125.4H165.2V100.6H185.2C190.5 100.6 193.8 103.7 193.8 108.5C193.8 112.5 191.7 115.1 187.6 116L194.3 125.4H188.8ZM188.9 108.6C188.9 106.1 187.4 105.1 184.2 105.1H170V112H184.5C187.4 111.9 188.9 110.8 188.9 108.6Z" fill="#0F2752"/>
<path d="M235.7 112.9C235.7 116.6 234.3 119.3 231.5 122.2C230 123.8 226.3 125.4 222 125.4H205.2V100.6H221.2C230 100.7 235.7 105.8 235.7 112.9ZM230.5 113.2C230.5 108.3 227 105.1 221.6 105.1H210V121.1H222.3C227.1 121 230.5 117.7 230.5 113.2Z" fill="#0F2752"/>
<path d="M258 104.2C252.5 104.2 249.7 105.2 249.7 107.1C249.7 109.8 254.1 109.4 261.3 110.1C269.1 110.9 272.8 112.6 272.8 117.6C272.8 122.9 268 125.9 258.9 125.9C252.5 125.9 247.5 124.5 243.6 121.5L246.2 118.1C249.5 120.4 253.8 121.7 258.8 121.7C264.5 121.7 267.6 120.1 267.6 117.8C267.6 116.5 266.7 115.5 264.8 115C262.1 114.2 258.3 114.5 253.6 114C247.5 113.4 244.7 111.5 244.7 107.6C244.7 102.9 249.5 99.9 258 99.9C263.6 99.9 268.1 101.1 271.6 103.5L268.6 106.6C265.2 105 261.8 104.2 258 104.2Z" fill="#0F2752"/>
</svg>
