<svg width="273" height="126" viewBox="0 0 273 126" fill="none" xmlns="http://www.w3.org/2000/svg">
<path d="M0.5 53H15.3C22.1 53 29 54.5 29 61.8C29 64.6 27.5 67.3 24.4 68.2V68.5C28.2 69.7 30.6 72.3 30.6 76.1C30.6 82.7 23.9 84.9 17.8 84.9H0.5V53ZM13.4 65.3C15.3 65.3 17.4 65.1 17.4 62.9C17.4 60.5 15 60.7 13.2 60.7H12.3V65.3H13.4V65.3ZM12.3 77.3H13.7C15.8 77.3 18.8 77.3 18.8 74.6C18.8 71.9 15.5 72 13.5 72H12.2V77.3H12.3Z" fill="white"/>
<path d="M32.7 53H58.4V61.7H46.7V64.8H57.4V73.1H46.7V76.2H58.8V84.9H32.7V53Z" fill="white"/>
<path d="M76.5 53L81.3 61.3H81.8C82.3 60.3 82.7 59.3 83.2 58.3L86.3 53H103.9L89.1 71.2V84.9H73.8V71.2L58.8 53.1H76.5" fill="white"/>
<path d="M148.1 69.1C148.1 79.3 136.6 85.5 122.5 85.5C108.4 85.5 96.9 79.4 96.9 69.1C96.9 59.1 108.4 52.6 122.5 52.6C136.6 52.5 148.1 59 148.1 69.1ZM113.9 69.2C113.9 72.8 117.5 75.3 122.5 75.3C127.6 75.3 131.1 72.8 131.1 69.2C131.1 65.8 127.8 63 122.5 63C117.2 63 113.9 65.8 113.9 69.2Z" fill="white"/>
<path d="M202.6 53H229.1C253.2 53 271.6 57.7 271.6 69.4C271.6 78.9 256.6 84.9 235.5 84.9H202.5V53H202.6ZM228.7 75.4H230.3C239 75.4 245.6 73.6 245.6 69.4C245.6 64.9 239.8 63 230.3 63H228.7V75.4V75.4Z" fill="white"/>
<path d="M265.8 57.1C265.8 55.6 267 54.5 268.4 54.5C269.9 54.5 271 55.7 271 57.1C271 58.6 269.8 59.7 268.4 59.7C266.9 59.7 265.8 58.5 265.8 57.1ZM270.6 57.1C270.6 55.9 269.6 54.9 268.4 54.9C267.2 54.9 266.2 55.9 266.2 57.1C266.2 58.3 267.2 59.3 268.4 59.3C269.6 59.3 270.6 58.3 270.6 57.1ZM269.6 58.5H269.1L268.2 57.2H267.7V58.5H267.3V55.6H268.5C269 55.6 269.5 55.7 269.5 56.4C269.5 57 269.1 57.2 268.6 57.2L269.6 58.5ZM268.3 56.7C268.7 56.7 269.3 56.8 269.3 56.3C269.3 56 268.9 56 268.6 56H267.8V56.7H268.3V56.7Z" fill="white"/>
<path d="M167.4 53.1H150.2V84.9H167.4V68.7L182.6 84.9H199.7V53.1H182.6V69.6L167.4 53.1Z" fill="white"/>
<path d="M5.6 6.4H7.1C12 6.4 16.1 7.4 16.1 13.3C16.1 19.3 12 20.4 7 20.4H5.7V6.4H5.6ZM5.6 24.6H8.90001C13.6 24.6 19.7 25.8 19.7 31.8C19.7 37.8 14.6 39.3 9.7 39.3H5.7V24.6H5.6ZM0.400003 43.9H10.3C17.8 43.9 25 40.5 25 32.1C25 27.2 21.5 22.3 16.5 21.4V21.3C19.4 20 21 16.4 21 13.3C21 3.8 13.5 1.7 5.5 1.7H0.300003V43.9H0.400003Z" fill="white"/>
<path d="M28 1.7H50.7V6.5H33.2V18.4H50.1V23.2H33.2V39.1H50.7V43.9H28V1.7Z" fill="white"/>
<path d="M60.8 6.5H62.6C73.4 6.5 82.7 10.5 82.7 22.8C82.7 35.1 73.4 39.1 62.6 39.1H60.8V6.5ZM55.6 43.9H64.2C77.5 43.9 88.1 36.9 88.1 22.6C88.1 8.5 77.3 1.7 64.4 1.7H55.7V43.9H55.6Z" fill="white"/>
<path d="M108.1 6.4H109.6C114.5 6.4 118.6 7.4 118.6 13.3C118.6 19.3 114.5 20.4 109.5 20.4H108.2V6.4H108.1ZM108.1 24.6H111.4C116.1 24.6 122.2 25.8 122.2 31.8C122.2 37.8 117.1 39.3 112.2 39.3H108.2V24.6H108.1ZM102.8 43.9H112.7C120.2 43.9 127.4 40.5 127.4 32.1C127.4 27.2 123.9 22.3 118.9 21.4V21.3C121.8 20 123.4 16.4 123.4 13.3C123.4 3.8 115.9 1.7 107.9 1.7H102.7V43.9H102.8Z" fill="white"/>
<path d="M154.8 28.5H139.8L147.3 11.4L154.8 28.5ZM157 33.4L161.8 44H167.5L147.3 0L127.1 44H132.8L137.6 33.4H157Z" fill="white"/>
<path d="M176.7 43.9H171.4V6.5H161.4V1.7H186.7V6.5H176.7V43.9Z" fill="white"/>
<path d="M215 18.7V1.7H220.2V43.9H215V23.6H194.9V43.9H189.6V1.7H194.9V18.7H215Z" fill="white"/>
<path d="M247.1 23.1L256.4 34.5C253.8 37.1 250.6 40.1 246.7 40.1C242.7 40.1 238.9 36.3 238.9 32.3C238.9 28.3 243.7 25.4 246.6 23.4L247.1 23.1ZM248.2 16.5L246.8 14.7C245.6 13.1 244.3 11.6 244.3 9.4C244.3 6.7 246.5 4.9 249 4.9C251.8 4.9 253.9 6.5 253.9 9.5C253.9 12.6 251 14.3 248.8 16L248.2 16.5ZM264.2 43.9H270.7L263.1 34.5L268.3 28.4L264.9 24.9L260 30.6L251.2 20C254.7 17.4 258.9 14.2 258.9 9.5C258.9 4 254.3 0.699997 249.2 0.699997C243.6 0.699997 239.5 4.1 239.5 9.9C239.5 13.5 241.7 16.6 244.1 19.1L241.5 21C237.5 23.9 234.2 26.8 234.2 32.2C234.2 39.5 240.1 44.6 247.1 44.6C252.1 44.6 256.6 41.7 259.8 38L264.2 43.9Z" fill="white"/>
<path d="M27.7 124.6L19.8 113.5H5.1V124.6H0.300003V95.4H23.3C29.4 95.4 33.1 98.9 33.1 104.6C33.1 109.8 29.9 112.5 25.5 113.2L33.3 124.6H27.7ZM28.1 104.6C28.1 101.4 26.1 99.8 22.1 99.8H5.1V109.1H22.6C26.2 109.1 28.1 107.5 28.1 104.6Z" fill="#0F2752"/>
<path d="M44.3 124.6V99.8H70V104.2H49.1V109.5H63.6V113.9H49.1V120.2H70.9V124.6H44.3Z" fill="#0F2752"/>
<path d="M110.8 124.6H105L99.1 103.9L93.2 124.6H87.4L79 99.8H84.4L90.4 120.4L96.3 99.8H102.1L108 120.4L114 99.8H119.4L110.8 124.6Z" fill="#0F2752"/>
<path d="M151.4 124.6L148.5 119.3H131.9L129 124.6H123.7L137.2 99.8H143.2L156.7 124.6H151.4ZM140.2 104L134.3 115H146.1L140.2 104Z" fill="#0F2752"/>
<path d="M188.8 124.6L182.3 115.5H170V124.6H165.2V99.8H185.2C190.5 99.8 193.8 102.9 193.8 107.7C193.8 111.7 191.7 114.3 187.6 115.2L194.3 124.6H188.8ZM188.9 107.8C188.9 105.3 187.4 104.3 184.2 104.3H170V111.2H184.5C187.4 111.1 188.9 110 188.9 107.8Z" fill="#0F2752"/>
<path d="M235.7 112.1C235.7 115.8 234.3 118.5 231.5 121.4C230 123 226.3 124.6 222 124.6H205.2V99.8H221.2C230 99.9 235.7 105 235.7 112.1ZM230.5 112.4C230.5 107.5 227 104.3 221.6 104.3H210V120.3H222.3C227.1 120.2 230.5 116.9 230.5 112.4Z" fill="#0F2752"/>
<path d="M258 103.4C252.5 103.4 249.7 104.4 249.7 106.3C249.7 109 254.1 108.6 261.3 109.3C269.1 110.1 272.8 111.8 272.8 116.8C272.8 122.1 268 125.1 258.9 125.1C252.5 125.1 247.5 123.7 243.6 120.7L246.2 117.3C249.5 119.6 253.8 120.9 258.8 120.9C264.5 120.9 267.6 119.3 267.6 117C267.6 115.7 266.7 114.7 264.8 114.2C262.1 113.4 258.3 113.7 253.6 113.2C247.5 112.6 244.7 110.7 244.7 106.8C244.7 102.1 249.5 99.1 258 99.1C263.6 99.1 268.1 100.3 271.6 102.7L268.6 105.8C265.2 104.2 261.8 103.4 258 103.4Z" fill="#0F2752"/>
</svg>
